<svg width="148" height="20" viewBox="0 0 148 20" fill="none" xmlns="http://www.w3.org/2000/svg">
<g clip-path="url(#clip0_402_198)">
<path d="M146.765 13.9921C145.581 16.9728 141.819 19.2707 138.569 19.2822C136.393 19.3214 134.029 18.5509 131.876 16.8967L130.992 18.0895L130.71 13.2446L135.359 12.2272L134.408 13.4915C134.689 13.7602 134.994 14.0027 135.319 14.2159C138.257 16.1515 142.165 14.4466 143.146 11.2651C143.426 10.3299 143.449 9.33643 143.213 8.38923C142.976 7.44204 142.488 6.57616 141.8 5.88274C141.156 5.25515 140.363 4.80077 139.496 4.56196C138.629 4.32314 137.715 4.30766 136.84 4.51696C135.414 4.97837 134.348 5.98887 133.424 7.26468C131.733 9.8163 130.41 13.5284 127.654 16.2092C126.584 17.3245 125.268 18.1752 123.811 18.6939C123.539 18.8 123.26 18.8992 122.969 18.9869L122.953 18.9569C122.828 18.9892 122.704 19.0192 122.574 19.0469C121.073 19.3838 119.513 19.3465 118.03 18.9385C113.095 17.7411 108.721 11.8719 111.777 5.36135C112.961 2.38061 116.723 0.0827667 119.975 0.0689242C122.15 0.0320111 124.515 0.802573 126.669 2.45674L127.55 1.26168L127.832 6.10653L123.197 7.12395L124.148 5.85967C123.864 5.58986 123.555 5.34732 123.225 5.13525C120.287 3.19962 116.379 4.90455 115.399 8.086C115.118 9.02122 115.095 10.0147 115.332 10.9619C115.569 11.9091 116.057 12.775 116.744 13.4684C117.389 14.0956 118.181 14.5495 119.049 14.7879C119.916 15.0263 120.829 15.0415 121.704 14.8319C123.13 14.3705 124.197 13.36 125.122 12.0865C126.814 9.53253 128.137 5.82276 130.892 3.13964C131.961 2.02435 133.273 1.17152 134.726 0.647999C134.999 0.544181 135.275 0.444977 135.569 0.355001L135.585 0.3873L135.961 0.295017C137.462 -0.0395958 139.022 -0.00237137 140.506 0.40345C145.449 1.61466 149.823 7.47924 146.765 13.9921ZM22.6655 19.5222H27.4778V0.295017H22.6655V19.5222ZM15.6444 7.15163L19.2519 5.09142C15.926 -2.53807 3.14632 -1.22996 0.598228 6.54257C-3.3647 18.6408 13.4425 25.3014 19.2496 14.7234L15.6237 12.9908C14.5112 13.7775 13.8488 14.8065 12.4639 15.3117C9.77736 16.2923 6.10525 14.9957 5.15202 12.158C2.70317 4.87917 11.8223 1.09557 15.6444 7.15163ZM45.7276 14.1421L49.1135 19.5222H43.2741C42.0163 16.7283 41.1115 13.8606 37.4348 14.7165V19.5222H32.6271V0.295017H43.1034C45.9376 0.295017 48.5365 3.98633 48.765 6.64869C49.0674 10.1854 47.8279 11.6135 45.7276 14.1421ZM42.4156 4.7592H37.4348V10.5961C39.9944 10.4923 43.6411 11.4336 44.082 8.11137C44.2435 6.88863 44.1143 4.7592 42.4156 4.7592ZM78.3104 0.295017H73.5004V19.5222H88.272V15.4017H78.3104V0.295017ZM92.1333 0.295017V19.5222H106.905V15.4017H96.9387V11.7358H105.095V7.61305H96.9387V4.41545H106.9V0.295017H92.1287H92.1333ZM66.8024 7.15163L70.4099 5.09142C67.0794 -2.52192 54.3043 -1.23457 51.7586 6.53795C47.7933 18.6362 64.6006 25.2967 70.4076 14.7188L66.784 12.9862C65.6692 13.7729 65.0091 14.8019 63.6243 15.3071C60.9331 16.2922 57.2633 14.9957 56.317 12.158C53.8612 4.87917 62.9803 1.09557 66.8024 7.15163Z" fill="white"/>
</g>
<defs>
<clipPath id="clip0_402_198">
<rect width="147.778" height="20" fill="white"/>
</clipPath>
</defs>
</svg>
