<svg width="24" height="24" viewBox="0 0 24 24" fill="none" xmlns="http://www.w3.org/2000/svg">
<path d="M13.0014 3.69046V3.71046C13.0014 4.38046 13.4514 4.94046 14.0814 5.14046C16.9314 6.03046 19.0014 8.68046 19.0014 11.8205C19.0014 12.3405 18.9414 12.8305 18.8314 13.3105C18.6914 13.9505 18.9514 14.6105 19.5214 14.9505L19.5314 14.9605C20.3914 15.4605 21.5114 15.0105 21.7414 14.0505C21.9114 13.3305 22.0014 12.5805 22.0014 11.8205C22.0014 7.32046 19.0214 3.50046 14.9214 2.25046C13.9714 1.96046 13.0014 2.69046 13.0014 3.69046ZM10.9414 18.7405C7.95138 18.3105 5.52138 15.8805 5.08138 12.9005C4.54138 9.30046 6.74138 6.13046 9.91138 5.14046C10.5514 4.95046 11.0014 4.38046 11.0014 3.71046V3.69046C11.0014 2.69046 10.0314 1.96046 9.07138 2.25046C4.56138 3.63046 1.41138 8.11046 2.09138 13.2105C2.68138 17.5905 6.22138 21.1305 10.6014 21.7205C13.7414 22.1405 16.6414 21.1105 18.7314 19.1905C19.4714 18.5105 19.3414 17.3005 18.4714 16.8005C17.8914 16.4605 17.1714 16.5705 16.6714 17.0205C15.2014 18.3605 13.1614 19.0705 10.9414 18.7405Z" fill="#3D9836"/>
</svg>
