<svg xmlns="http://www.w3.org/2000/svg" xmlns:xlink="http://www.w3.org/1999/xlink" viewBox="0 0 640.27 86.69"><defs><style>.cls-1{fill:url(#linear-gradient);}</style><linearGradient id="linear-gradient" y1="43.35" x2="640.27" y2="43.35" gradientUnits="userSpaceOnUse"><stop offset="0.13" stop-color="#125d2d"/><stop offset="0.65" stop-color="#4dae39"/><stop offset="1" stop-color="#00a1d8"/></linearGradient></defs><g id="Layer_2" data-name="Layer 2"><g id="Layer_1-2" data-name="Layer 1"><path class="cls-1" d="M635.88,60.65c-5.13,12.92-21.43,22.88-35.51,22.93-9.43.17-19.67-3.17-29-10.34l-3.83,5.17-1.22-21L586.46,53l-4.12,5.48a27.62,27.62,0,0,0,3.95,3.14c12.73,8.39,29.66,1,33.91-12.79a23.54,23.54,0,0,0-5.83-23.33,23.09,23.09,0,0,0-21.49-5.92c-6.18,2-10.8,6.38-14.8,11.91-7.33,11.06-13.06,27.15-25,38.77a43.14,43.14,0,0,1-16.65,10.77c-1.18.46-2.39.89-3.65,1.27l-.07-.13c-.54.14-1.08.27-1.64.39a40.64,40.64,0,0,1-19.69-.47C490,76.9,471.05,51.46,484.29,23.24,489.42,10.32,505.72.36,519.81.3c9.42-.16,19.67,3.18,29,10.35l3.82-5.18,1.22,21-20.08,4.41,4.12-5.48a27.15,27.15,0,0,0-4-3.14c-12.73-8.39-29.66-1-33.91,12.79a23.54,23.54,0,0,0,5.83,23.33,23.09,23.09,0,0,0,21.49,5.91c6.18-2,10.8-6.38,14.81-11.9,7.33-11.07,13.06-27.15,25-38.78A43.34,43.34,0,0,1,583.72,2.81c1.18-.45,2.38-.88,3.65-1.27l.07.14,1.63-.4a40.88,40.88,0,0,1,19.69.47C630.18,7,649.13,32.42,635.88,60.65ZM98.2,84.62h20.85V1.28H98.2ZM67.78,31l15.63-8.93C69-11,13.63-5.33,2.59,28.36-14.58,80.8,58.24,109.67,83.4,63.82L67.69,56.31C62.87,59.72,60,64.18,54,66.37,42.36,70.62,26.45,65,22.32,52.7,11.71,21.15,51.22,4.75,67.78,31ZM198.12,61.3l14.67,23.32h-25.3c-5.45-12.11-9.37-24.54-25.3-20.83V84.62H141.36V1.28h45.39c12.28,0,23.54,16,24.53,27.54C212.59,44.15,207.22,50.34,198.12,61.3ZM183.77,20.63H162.19v25.3c11.09-.45,26.89,3.63,28.8-10.77C191.69,29.86,191.13,20.63,183.77,20.63ZM339.29,1.28H318.45V84.62h64V66.76H339.29Zm59.89,0V84.62h64V66.76H420V50.87h35.34V33H420V19.14h43.16V1.28h-64ZM289.43,31l15.63-8.93c-14.43-33-69.78-27.42-80.81,6.27-17.18,52.44,55.64,81.31,80.8,35.46l-15.7-7.51c-4.83,3.41-7.69,7.87-13.69,10.06C264,70.62,248.1,65,244,52.7,233.36,21.15,272.87,4.75,289.43,31Z"/></g></g></svg>