<svg width="16" height="16" viewBox="0 0 16 16" fill="none" xmlns="http://www.w3.org/2000/svg">
<g clip-path="url(#clip0_15_130)">
<path d="M15.2688 7.56516C15.2883 7.40564 15.2739 7.24379 15.2267 7.09019C15.1794 6.93659 15.1003 6.79468 14.9945 6.67373C14.8874 6.55182 14.7555 6.45412 14.6078 6.38712C14.46 6.32012 14.2996 6.28536 14.1373 6.28516H1.86304C1.70077 6.28536 1.54041 6.32012 1.39262 6.38712C1.24483 6.45412 1.113 6.55182 1.0059 6.67373C0.900073 6.79468 0.820946 6.93659 0.773683 7.09019C0.72642 7.24379 0.712085 7.40564 0.731613 7.56516L1.58876 14.4223C1.62244 14.7011 1.75757 14.9577 1.96835 15.1431C2.17914 15.3286 2.45084 15.43 2.73161 15.428H13.2916C13.5724 15.43 13.8441 15.3286 14.0549 15.1431C14.2657 14.9577 14.4008 14.7011 14.4345 14.4223L15.2688 7.56516Z" stroke="#000001" stroke-linecap="round" stroke-linejoin="round"/>
<path d="M2.85742 6.28557V5.71415C2.85742 4.35018 3.39926 3.04207 4.36373 2.0776C5.3282 1.11312 6.63631 0.571289 8.00028 0.571289C9.36425 0.571289 10.6724 1.11312 11.6368 2.0776C12.6013 3.04207 13.1431 4.35018 13.1431 5.71415V6.28557" stroke="#000001" stroke-linecap="round" stroke-linejoin="round"/>
<path d="M5.71436 9.71387V11.9996" stroke="#000001" stroke-linecap="round" stroke-linejoin="round"/>
<path d="M10.2861 9.71387V11.9996" stroke="#000001" stroke-linecap="round" stroke-linejoin="round"/>
</g>
<defs>
<clipPath id="clip0_15_130">
<rect width="16" height="16" fill="white"/>
</clipPath>
</defs>
</svg>
