<svg width="24" height="24" viewBox="0 0 24 24" fill="none" xmlns="http://www.w3.org/2000/svg">
<path d="M11.9996 5.82997L14.4596 8.28997C14.8496 8.67997 15.4796 8.67997 15.8696 8.28997C16.2596 7.89997 16.2596 7.26997 15.8696 6.87997L12.6996 3.69997C12.3096 3.30997 11.6796 3.30997 11.2896 3.69997L8.11965 6.87997C7.72965 7.26997 7.72965 7.89997 8.11965 8.28997C8.50965 8.67997 9.13965 8.67997 9.52965 8.28997L11.9996 5.82997ZM11.9996 18.17L9.53965 15.71C9.14965 15.32 8.51965 15.32 8.12965 15.71C7.73965 16.1 7.73965 16.73 8.12965 17.12L11.2996 20.3C11.6896 20.69 12.3196 20.69 12.7096 20.3L15.8796 17.13C16.2696 16.74 16.2696 16.11 15.8796 15.72C15.4896 15.33 14.8596 15.33 14.4696 15.72L11.9996 18.17Z" fill="#3D9836"/>
</svg>
