<svg width="7" height="4" viewBox="0 0 7 4" fill="none" xmlns="http://www.w3.org/2000/svg">
<path d="M6.81918 1.0955L3.96393 3.81059C3.90206 3.8706 3.82845 3.91824 3.74735 3.95075C3.66624 3.98326 3.57925 4 3.49139 4C3.40353 4 3.31653 3.98326 3.23543 3.95075C3.15432 3.91824 3.08071 3.8706 3.01884 3.81059L0.196871 1.0955C0.134489 1.03598 0.0849755 0.965153 0.0511859 0.88712C0.0173964 0.809088 0 0.72539 0 0.640857C0 0.556323 0.0173964 0.472626 0.0511859 0.394593C0.0849755 0.316561 0.134489 0.245738 0.196871 0.186209C0.321572 0.0669429 0.490259 0 0.66609 0C0.841921 0 1.01061 0.0669429 1.13531 0.186209L3.49139 2.45305L5.84747 0.186209C5.97143 0.0679078 6.13875 0.00121474 6.31336 0.000507355C6.40095 2.00272e-05 6.48778 0.0161726 6.56887 0.0480394C6.64996 0.0799062 6.72372 0.12686 6.7859 0.186209C6.85051 0.243595 6.90266 0.312731 6.93934 0.389622C6.97602 0.466512 6.99649 0.549633 6.99959 0.634181C7.00268 0.71873 6.98833 0.80303 6.95737 0.882212C6.9264 0.961394 6.87944 1.03389 6.81918 1.0955Z" fill="black"/>
</svg>
